# AST/ASF file generated using VICON BodyLanguage
# -----------------------------------------------
:version 1.10
:name VICON
:units
  mass 1.0
  length 0.45
  angle deg
:documentation
   .ast/.asf automatically generated from VICON data using
   VICON BodyBuilder and BodyLanguage model FoxedUp or BRILLIANT.MOD
:root
   order TX TY TZ RX RY RZ
   axis XYZ
   position 0 0 0  
   orientation 0 0 0 
:bonedata
  begin
     id 1 
     name lhipjoint
     direction 0.575328 -0.747301 0.332475 
     length 2.40933 
     axis 0 0 0  XYZ
  end
  begin
     id 2 
     name lfemur
     direction 0.34202 -0.939693 0  
     length 7.31453  
     axis 0 0 20  XYZ
    dof rx ry rz
    limits (-160.0 20.0)
           (-70.0 70.0)
           (-60.0 70.0)
  end
  begin
     id 3 
     name ltibia
     direction 0.34202 -0.939693 0   
     length 7.82185   
     axis 0 0 20   XYZ
    dof rx
    limits (-10.0 170.0)
  end
  begin
     id 4 
     name lfoot
     direction 0.0795993 -0.218697 0.972541   
     length 2.19173   
     axis -90 7.62852e-016 20   XYZ
    dof rx rz
    limits (-45.0 90.0)
           (-70.0 20.0)
  end
  begin
     id 5 
     name ltoes
     direction 1.53537e-011 -4.21894e-011 1   
     length 1.10023   
     axis -90 7.62852e-016 20   XYZ
    dof rx
    limits (-90.0 20.0)
  end
  begin
     id 6 
     name rhipjoint
     direction -0.513884 -0.783789 0.348708   
     length 2.29716  
     axis 0 0 0  XYZ 
  end
  begin
     id 7 
     name rfemur
     direction -0.34202 -0.939693 0   
     length 7.59573   
     axis 0 0 -20   XYZ
    dof rx ry rz
    limits (-160.0 20.0)
           (-70.0 70.0)
           (-70.0 60.0)
  end
  begin
     id 8 
     name rtibia
     direction -0.34202 -0.939693 0   
     length 7.66402   
     axis 0 0 -20   XYZ
    dof rx
    limits (-10.0 170.0)
 end
 begin
     id 9 
     name rfoot
     direction -0.137793 -0.378584 0.915253   
     length 2.27056  
     axis -90 -7.62852e-016 -20   XYZ
    dof rx rz
    limits (-45.0 90.0)
           (-20.0 70.0)
  end
  begin
     id 10 
     name rtoes
     direction -1.53493e-011 -4.22159e-011 1   
     length 1.11766   
     axis -90 -7.62852e-016 -20   XYZ
    dof rx
    limits (-90.0 20.0)
  end
  begin
     id 11 
     name lowerback
     direction -0.00732775 0.998356 -0.05685   
     length 2.16513   
     axis 0 0 0   XYZ
    dof rx ry rz
    limits (-20.0 45.0)
           (-30.0 30.0)
           (-30.0 30.0)
  end
  begin
     id 12 
     name upperback
     direction 0.0218081 0.999627 -0.0164647   
     length 2.16755   
     axis 0 0 0   XYZ
    dof rx ry rz
    limits (-20.0 45.0)
           (-30.0 30.0)
           (-30.0 30.0)
  end
  begin
     id 13 
     name thorax
     direction 0.02365 0.999661 0.0108914   
     length 2.16932   
     axis 0 0 0   XYZ
    dof rx ry rz
    limits (-20.0 45.0)
           (-30.0 30.0)
           (-30.0 30.0)
  end
  begin
     id 14 
     name lowerneck
     direction -0.0523929 0.978385 0.200044   
     length 1.63877   
     axis 0 0 0   XYZ
    dof rx ry rz
    limits (-20.0 45.0)
           (-30.0 30.0)
           (-30.0 30.0)
  end
  begin
     id 15 
     name upperneck
     direction 0.0448674 0.981321 -0.187074   
     length 1.69014   
     axis 0 0 0   XYZ
    dof rx ry rz
    limits (-20.0 45.0)
           (-30.0 30.0)
           (-30.0 30.0)
  end
  begin
     id 16
     name head
     direction 0.0199089 0.996118 -0.0857429  
     length 1.70094  
     axis 0 0 0   XYZ
    dof rx ry rz
    limits (-20.0 45.0)
           (-30.0 30.0)
           (-30.0 30.0)
  end
  begin
     id 17 
     name lclavicle
     direction 0.940366 0.30191 -0.156722  
     length 3.37521  
     axis 0 0 0   XYZ
    dof ry rz
    limits (-20.0 10.0)
           (0.0 20.0)
  end
  begin
     id 18 
     name lhumerus
     direction 1 -4.4897e-011 -1.7911e-027   
     length 5.25287   
     axis 180 -30 -90   XYZ
    dof rx ry rz
    limits (-60.0 90.0)
           (-90.0 90.0)
           (-90.0 90.0)
  end
  begin
     id 19
     name lradius
     direction 1 -4.48951e-011 1.04424e-027   
     length 3.51014   
     axis 180 -30 -90   XYZ
    dof rx
    limits (-10.0 170.0)
  end
  begin
     id 20
     name lwrist
     direction 1 -4.48997e-011 -9.5942e-028   
     length 1.75507   
     axis 8.48502e-016 90 90   XYZ
    dof ry
    limits (-180.0 0.0)
 end
  begin
     id 21 
     name lhand
     direction 1 -4.48831e-011 -1.90777e-027   
     length 0.706179   
     axis 1.22306e-015 90 90   XYZ
    dof rx rz
    limits (-90.0 90.0)
           (-45.0 45.0)
  end
  begin
     id 22 
     name lfingers
     direction 1 -4.49108e-011 -3.85244e-027   
     length 0.569339   
     axis 2.44611e-015 90 90   XYZ
    dof rx
    limits (0.0 90.0)
  end
  begin
     id 23
     name lthumb
     direction 0.707107 -6.34953e-011 0.707107   
     length 0.817461   
     axis -90 45 -1.62303e-014   XYZ
    dof rx rz
    limits (-45.0 45.0)
           (-45.0 45.0)
  end
  begin
     id 24 
     name rclavicle
     direction -0.905329 0.382405 -0.184787   
     length 3.30787  
     axis 0 0 0   XYZ 
    dof ry rz
    limits (-10.0 20.0)
           (-20.0 0.0)
  end
  begin
     id 25 
     name rhumerus
     direction -1 -4.48953e-011 -9.15316e-029  
     length 5.28721   
     axis 180 30 90   XYZ
    dof rx ry rz
    limits (-90.0 60.0)
           (-90.0 90.0)
           (-90.0 90.0)
  end
  begin
     id 26 
     name rradius
     direction -1 -4.48987e-011 9.37824e-028   
     length 3.50544   
     axis 180 30 90   XYZ
    dof rx
    limits (-10.0 170.0)
  end
  begin
     id 27 
     name rwrist
     direction -1 -4.48967e-011 -9.58414e-028   
     length 1.75272   
     axis 8.48502e-016 -90 -90   XYZ
    dof ry
    limits (-180.0 0.0)
  end
  begin
     id 28
     name rhand
     direction -1 -4.48904e-011 -1.91266e-027   
     length 0.884996   
     axis 1.22306e-015 -90 -90   XYZ
    dof rx rz
    limits (-90.0 90.0)
           (-45.0 45.0)
  end
  begin
     id 29
     name rfingers
     direction -1 -4.4909e-011 -3.85015e-027   
     length 0.713507   
     axis 2.44611e-015 -90 -90   XYZ
    dof rx
    limits (0.0 90.0)
  end
  begin
     id 30
     name rthumb
     direction -0.707107 -6.34853e-011 0.707107   
     length 1.02446   
     axis -90 -45 1.62303e-014   XYZ
    dof rx rz
    limits (-45.0 45.0)
           (-45.0 45.0)
  end
:hierarchy
  begin
    root lhipjoint rhipjoint lowerback
    lhipjoint lfemur
    lfemur ltibia
    ltibia lfoot
    lfoot ltoes
    rhipjoint rfemur
    rfemur rtibia
    rtibia rfoot
    rfoot rtoes
    lowerback upperback
    upperback thorax
    thorax lowerneck lclavicle rclavicle
    lowerneck upperneck
    upperneck head
    lclavicle lhumerus
    lhumerus lradius
    lradius lwrist
    lwrist lhand lthumb
    lhand lfingers
    rclavicle rhumerus
    rhumerus rradius
    rradius rwrist
    rwrist rhand rthumb
    rhand rfingers
  end

#!OML:ASF F:\twosubjects\two\Thursday\Session 1\justin.ASF
:FULLY-SPECIFIED
:DEGREES
164
root 9.15965 16.3396 -8.02778 11.6514 37.9499 7.63033
lowerback 15.5815 0.213163 3.37187
upperback -1.0587 1.55232 5.66617
thorax -10.0326 0.770021 3.8857
lowerneck 4.02435 -19.7508 -19.9431
upperneck 7.58115 -28.6632 19.5491
head 7.42674 -14.1367 6.37254
rclavicle -1.03368e-014 9.54166e-015
rhumerus 85.0857 28.3863 -28.9851
rradius 107.567
rwrist 12.2264
rhand -39.384 26.2285
rfingers 7.12502
rthumb -12.3739 -3.38526
lclavicle -1.03368e-014 9.54166e-015
lhumerus -3.03908 46.2014 66.1992
lradius 146.511
lwrist 28.1982
lhand -27.0435 39.6207
lfingers 7.12502
lthumb -0.462141 69.5999
rfemur -38.7409 -8.21787 -5.48533
rtibia 51.391
rfoot -16.1802 -4.00814
rtoes -31.5902
lfemur -8.74964 1.92756 -1.62556
ltibia 30.3317
lfoot -3.89803 13.1736
ltoes -33.5889
165
root 9.16379 16.3731 -8.02248 11.324 37.9397 7.3191
lowerback 15.2464 0.192672 3.77727
upperback -0.792916 1.57667 5.83315
thorax -9.54299 0.768358 3.82055
lowerneck 4.53614 -19.8187 -21.1114
upperneck 6.8865 -28.9832 21.0459
head 7.62054 -14.3263 6.92373
rclavicle 3.65764e-014 2.22639e-014
rhumerus 84.7444 28.3199 -29.0464
rradius 107.405
rwrist 12.2331
rhand -40.0605 25.2922
rfingers 7.12502
rthumb -13.0261 -4.2811
lclavicle 3.65764e-014 2.22639e-014
lhumerus -1.96379 45.7702 66.902
lradius 146.088
lwrist 28.2224
lhand -26.9455 39.6488
lfingers 7.12502
lthumb -0.367481 69.6283
rfemur -38.3631 -7.61638 -5.29669
rtibia 51.1138
rfoot -16.2238 -4.38576
rtoes -30.8931
lfemur -8.4182 2.06995 -1.32141
ltibia 30.0407
lfoot -3.96802 12.6687
ltoes -33.1713
166
root 9.16939 16.3858 -8.023 11.4164 37.8846 7.50914
lowerback 14.992 0.144178 3.90551
upperback -0.64903 1.50519 5.83638
thorax -9.23249 0.728983 3.76028
lowerneck 3.48318 -20.0615 -20.9426
upperneck 7.52075 -29.2037 20.6651
head 7.95247 -14.3449 6.61047
rclavicle 4.45278e-014 -5.08889e-014
rhumerus 84.4601 28.3153 -29.0498
rradius 107.479
rwrist 12.1773
rhand -40.0001 24.1697
rfingers 7.12502
rthumb -12.9679 -5.40735
lclavicle 4.45278e-014 -5.08889e-014
lhumerus -1.22223 45.5939 67.1601
lradius 145.738
lwrist 28.5151
lhand -27.5657 39.7396
lfingers 7.12502
lthumb -0.966479 69.7171
rfemur -38.1708 -7.34926 -5.5469
rtibia 50.8789
rfoot -16.1834 -4.44917
rtoes -30.5063
lfemur -8.18422 1.88725 -1.39486
ltibia 29.7972
lfoot -4.61111 12.9878
ltoes -31.1354
167
root 9.17882 16.3762 -8.02219 11.7243 37.8414 7.98796
lowerback 14.8045 0.0746702 3.79893
upperback -0.6613 1.37332 5.78308
thorax -9.13369 0.668975 3.79041
lowerneck 3.00497 -20.1904 -20.5123
upperneck 7.82094 -29.2458 19.9906
head 7.95102 -14.3344 6.3005
rclavicle 1.74931e-014 -3.18055e-015
rhumerus 84.0379 28.5028 -29.1695
rradius 107.556
rwrist 11.9722
rhand -39.6258 24.591
rfingers 7.12502
rthumb -12.6071 -5.00854
lclavicle 1.74931e-014 -3.18055e-015
lhumerus -0.261791 45.1129 67.8939
lradius 145.458
lwrist 28.3847
lhand -27.6173 40.0994
lfingers 7.12502
lthumb -1.01634 70.0767
rfemur -38.0442 -7.4421 -6.01258
rtibia 50.7222
rfoot -16.1618 -4.35531
rtoes -30.6378
lfemur -8.05815 1.84752 -1.73452
ltibia 29.5982
lfoot -4.6637 12.821
ltoes -30.1967
168
root 9.18614 16.3715 -8.02004 11.8018 37.8662 8.14945
lowerback 14.7386 -0.0116964 3.88219
upperback -0.737642 1.27356 5.78131
thorax -9.17428 0.616899 3.76512
lowerneck 2.9267 -20.219 -19.8362
upperneck 8.06007 -29.1598 19.1073
head 7.76612 -14.2952 5.98647
rclavicle 2.14687e-014 -6.36111e-015
rhumerus 83.5363 28.7691 -29.5019
rradius 107.551
rwrist 11.5778
rhand -39.2567 25.6474
rfingers 7.12502
rthumb -12.2512 -3.9738
lclavicle 2.14687e-014 -6.36111e-015
lhumerus 0.736804 44.2788 68.6992
lradius 145.092
lwrist 27.9382
lhand -27.1315 40.5561
lfingers 7.12502
lthumb -0.547053 70.5352
rfemur -37.9134 -7.3656 -6.20321
rtibia 50.6555
rfoot -16.1881 -4.49124
rtoes -30.7201
lfemur -8.00381 2.10635 -1.81598
ltibia 29.4884
lfoot -3.98527 12.0298
ltoes -31.6102
